<svg style="transition:.3s" viewBox="0 0 1440 490" xmlns="http://www.w3.org/2000/svg"><defs><linearGradient id="a" x1="0" x2="0" y1="1" y2="0"><stop stop-color="rgba(102, 7, 8, 1)" offset="0%"/><stop stop-color="rgba(164, 22, 26, 1)" offset="100%"/></linearGradient></defs><path fill="url(#a)" d="M0 196l80 32.7C160 261 320 327 480 294S800 131 960 98s320 33 480 57.2c160 24.8 320 7.8 480 40.8s320 114 480 106.2c160-8.2 320-106.2 480-171.5C3040 65 3200 33 3360 24.5s320 8.5 480 49 320 106.5 480 114.3c160 8.2 320-40.8 480-40.8s320 49 480 32.7C5440 163 5600 82 5760 40.8 5920 0 6080 0 6240 73.5s320 220.5 480 261.3c160 41.2 320-24.8 480-24.5 160-.3 320 65.7 480 81.7s320-16 480-16.3c160 .3 320 32.3 480 0 160-32.7 320-130.7 480-163.4 160-32.3 320-.3 480 8.2s320-8.5 480-8.2c160-.3 320 16.7 480 0 160-16.3 320-65.3 480-65.3s320 49 400 73.5l80 24.5v245H0z" opacity=".4"/></svg>