<svg xmlns="http://www.w3.org/2000/svg" data-name="Layer 1" width="895.287" height="796.46" class="injected-svg DownloadModal__ImageFile-sc-p17csy-5 iIfSkb grid_media"><path d="M175.05 793.28c8.993-7.598 14.455-19.602 13.022-31.288s-10.304-22.428-21.813-24.91-24.627 4.388-28.123 15.63c-1.924-21.674-4.14-44.257-15.664-62.715-10.434-16.713-28.507-28.672-48.093-30.811s-40.208 5.94-52.424 21.4-15.206 37.934-6.65 55.683c6.302 13.074 17.913 22.805 30.079 30.72 38.812 25.256 86.96 33.79 132.772 27.047z" fill="#f2f2f2"/><path d="M41.324 665.575a317.625 317.625 0 0144.264 43.954 322.163 322.163 0 0134.907 51.663 320.844 320.844 0 0114.949 31.651c.897 2.2-2.675 3.158-3.563.982a315.276 315.276 0 00-28.807-54.506 317.26 317.26 0 00-38.636-47.729 316.497 316.497 0 00-25.726-23.403c-1.845-1.502.783-4.102 2.612-2.612z" fill="#fff"/><path d="M818.82 329.538H695.808a7.008 7.008 0 01-7-7v-14.76a7.008 7.008 0 017-7H818.82a7.008 7.008 0 017 7v14.76a7.008 7.008 0 01-7 7z" fill="#660708"/><path d="M802.221 306.97l-52.425-47.269a6.494 6.494 0 00-8.317-.32l-114.73 37.882a6.507 6.507 0 00-4.135 8.21l4.627 14.016a6.488 6.488 0 008.21 4.134l105.244-34.75 42.937 38.714a6.454 6.454 0 004.345 1.673q.171 0 .343-.01a6.457 6.457 0 004.493-2.138l9.883-10.961a6.508 6.508 0 00-.475-9.18zM221.705 660.438a6.007 6.007 0 00-6 6v123.014a6.007 6.007 0 006 6h14.76a6.007 6.007 0 006-6V666.438a6.007 6.007 0 00-6-6zm45.951 136.014h-14.759a7.008 7.008 0 01-7-7V666.438a7.008 7.008 0 017-7h14.76a7.008 7.008 0 017 7v123.014a7.008 7.008 0 01-7 7z" fill="#660708"/><path d="M291.822 675.975s5.576 50.144-50.72 48.44-34.392-50.974-34.392-50.974 11.764-9.245 41.503-.304 43.609 2.838 43.609 2.838z" fill="#ccc"/><path d="M267.63 590.638a14.377 14.377 0 01-7.958-26.367l96.428-63.82a7 7 0 019.7 1.974l8.147 12.308a7.008 7.008 0 01-1.974 9.7l-96.428 63.82a14.304 14.304 0 01-7.915 2.385z" fill="#660708"/><circle cx="250.121" cy="480.559" r="51" fill="#660708"/><path d="M250.159 501.968c3.306-.092 7.42-.206 10.59-2.522a8.133 8.133 0 003.2-6.073 5.47 5.47 0 00-1.86-4.493c-1.656-1.399-4.073-1.727-6.679-.961l2.7-19.726-1.982-.271-3.173 23.19 1.655-.76c1.918-.88 4.551-1.327 6.188.056a3.515 3.515 0 011.152 2.895 6.147 6.147 0 01-2.38 4.528c-2.467 1.802-5.747 2.034-9.467 2.138zm17.75-32.074h10.772v2h-10.772zm-34 0h10.772v2h-10.772zM198.605 686.54s-4.403-149.715 57.244-139.44 35.96 154.851 35.96 154.851-13.21 26.42-45.5-2.935-47.704-12.476-47.704-12.476z" fill="#2f2e41"/><path d="M221.356 437.483c9.923-6.738 22.447-2.161 32.09 2.647 9.364 4.67 19.916 10.612 30.512 6.114 4.138-1.757 7.501-5.193 8.086-9.79.696-5.477-2.616-10.604-6.299-14.327a45.877 45.877 0 00-13.765-9.072 64.335 64.335 0 00-15.668-4.765 68.19 68.19 0 00-59.581 18.732 75.548 75.548 0 00-21.425 58.072c.842 11.345 4.466 22.914 11.735 31.82 6.82 8.356 17.033 14.23 27.933 14.721a31.334 31.334 0 007.963-.647c1.883-.401 2.687 2.49.797 2.893-11.352 2.42-23.113-1.176-32.117-8.258-9.478-7.456-15.294-18.743-17.844-30.372-4.88-22.255 1.234-46.206 15.242-64.022a69.796 69.796 0 0126.117-20.61 72.508 72.508 0 0133.692-6.182 67.104 67.104 0 0132.48 10.291c8.73 5.643 18.57 17.603 11.45 28.186-2.663 3.957-7.084 6.368-11.673 7.358a28.651 28.651 0 01-15.724-1.37c-11.406-4.027-21.955-13.027-34.723-11.663a16.931 16.931 0 00-7.764 2.834c-1.602 1.087-3.105-1.51-1.515-2.59z" fill="#2f2e41"/><path d="M657.085 205.2a13.88 13.88 0 014.55-25.239l112.988-24.596a6.506 6.506 0 017.734 4.968l-.489.107.489-.107 3.14 14.422a6.5 6.5 0 01-4.97 7.734L667.54 207.085a14.097 14.097 0 01-1.483.241 13.775 13.775 0 01-8.971-2.125z" fill="#660708"/><path d="M647.834 197.048q-.101-.402-.18-.813c-.929-4.893.768-10.045 4.779-14.507a30.705 30.705 0 0116.274-9.066l51.511-11.27a6.5 6.5 0 017.776 5.137l4.494 23.674a6.466 6.466 0 01-4.997 7.562l-51.837 11.34a33.322 33.322 0 01-7.117.784c-10.211 0-18.714-4.974-20.703-12.84z" fill="#2f2e41"/><circle cx="656.849" cy="93.076" r="51" fill="#660708"/><path d="M699.886 111.485c3.306-.091 7.42-.206 10.59-2.522a8.133 8.133 0 003.2-6.072 5.47 5.47 0 00-1.86-4.494c-1.655-1.398-4.073-1.727-6.678-.961l2.7-19.726-1.982-.271-3.174 23.19 1.655-.76c1.918-.88 4.552-1.327 6.188.056a3.515 3.515 0 011.153 2.895 6.147 6.147 0 01-2.381 4.528c-2.467 1.802-5.747 2.034-9.466 2.138zm-16.25-32.073h10.772v2h-10.772zM653.28 41.926a42.16 42.16 0 00-16.486-30.886 41.065 41.065 0 00-35.015-6.678 40.441 40.441 0 00-26.882 22.939 42.107 42.107 0 00-3.61 17.692 47.833 47.833 0 004.83 19.067c3.007 6.552 6.8 12.7 10.094 19.104a152.462 152.462 0 018.378 19.557 154.18 154.18 0 018.321 42.374c1.224 22.77-.954 56.014-26.66 64.753-6.537 2.222-13.588 2.636-20.442 2.618a83.951 83.951 0 01-21.42-2.509c-12.136-3.24-23.656-10.85-28.827-22.672a31.553 31.553 0 01-2.373-8.569c-.107-.81.767-1.492 1.5-1.5a1.537 1.537 0 011.5 1.5c1.675 12.598 12.172 22.26 23.57 26.602a67.697 67.697 0 0020.736 4.012c7.046.356 14.362.3 21.261-1.321a30.792 30.792 0 0016.014-9.103 41.402 41.402 0 008.36-15.122c4.057-12.385 4.482-26.002 3.77-38.91a151.262 151.262 0 00-8.498-42.194 147.934 147.934 0 00-8.804-19.958c-3.343-6.286-7.054-12.395-9.87-18.947a49.444 49.444 0 01-4.445-19.154 45.244 45.244 0 013.576-17.793 43.37 43.37 0 0125.81-24.36 44.64 44.64 0 0136.016 2.95 45.385 45.385 0 0121.255 27.732 43.424 43.424 0 011.342 8.776c.099 1.93-2.902 1.924-3 0z" fill="#2f2e41"/><path d="M643.308 42.979a23.488 23.488 0 00-7.857-14.333 23.17 23.17 0 00-16.195-5.376c-1.93.097-1.925-2.903 0-3A26.104 26.104 0 01646.2 42.181c.289 1.889-2.602 2.703-2.892.798z" fill="#2f2e41"/><path d="M637.004 43.152a5.5 5.5 0 013.499-6.946l14.243-4.704a5.5 5.5 0 113.45 10.445l-14.244 4.703a5.498 5.498 0 01-6.948-3.498z" fill="#2f2e41"/><path d="M748.235 112.45a5.006 5.006 0 00-2.164 8.748l22.011 18.289a3.254 3.254 0 01.783.978 3.058 3.058 0 01.3 1.206l1.373 33.54a4.893 4.893 0 003.85 4.67l.039.01a4.886 4.886 0 005.486-2.475l7.94-14.48a3.01 3.01 0 012.688-1.541 2.91 2.91 0 012.134.946l38.1 40.656a4.968 4.968 0 004.37 1.527 5.018 5.018 0 003.744-2.707l55.867-111.772a5.002 5.002 0 00-5.504-7.138l-1.809.378-139.208 29.165zm-.892 7.212a3.007 3.007 0 011.308-5.25l139.165-29.156 1.852-.388a3.008 3.008 0 013.303 4.279l-55.867 111.772a3 3 0 01-4.868.707l-38.101-40.655a4.795 4.795 0 00-1.3-1.003l96.813-70.234A2.003 2.003 0 00888 86.16a1.744 1.744 0 00-.323.11l-117.549 52.472a4.934 4.934 0 00-.774-.791l-22.011-18.289z" fill="#ccc"/><path d="M748.235 112.45a5.006 5.006 0 00-2.164 8.748l22.011 18.289a3.254 3.254 0 01.783.978 3.058 3.058 0 01.3 1.206l1.373 33.54a4.893 4.893 0 003.85 4.67l.039.01a4.886 4.886 0 005.486-2.475l7.94-14.48a3.01 3.01 0 012.688-1.541 2.91 2.91 0 012.134.946l38.1 40.656a4.968 4.968 0 004.37 1.527 5.018 5.018 0 003.744-2.707l55.867-111.772a5.002 5.002 0 00-5.504-7.138l-1.809.378-139.208 29.165zm-.892 7.212a3.007 3.007 0 011.308-5.25l139.165-29.156 1.852-.388a3.008 3.008 0 013.303 4.279l-55.867 111.772a3 3 0 01-4.868.707l-38.101-40.655a4.795 4.795 0 00-1.3-1.003 4.866 4.866 0 00-2.268-.578c-.112-.004-.226 0-.34.005l-.01-.002a4.99 4.99 0 00-4.115 2.581l-7.941 14.49a2.91 2.91 0 01-3.3 1.474l-.02-.004a2.904 2.904 0 01-2.306-2.801l-1.373-33.54a4.73 4.73 0 00-.151-1.05l.002-.01a4.796 4.796 0 00-.357-.953 4.648 4.648 0 00-.528-.838 4.934 4.934 0 00-.774-.791l-22.011-18.289z" fill="#3f3d56"/><path d="M770.128 138.742L887.677 86.27a1.745 1.745 0 01.323-.111 2.003 2.003 0 011.648 3.574l-96.813 70.234-1.708 1.242-1.17-1.62.26-.197.01.002 98.241-71.283-117.455 52.42-.003.01-.511.223-.816-1.827z" fill="#3f3d56"/><path d="M623.264 297.96a5.506 5.506 0 00-5.5 5.5v20a5.506 5.506 0 005.5 5.5h64a5.506 5.506 0 005.5-5.5v-20a5.506 5.506 0 00-5.5-5.5z" fill="#2f2e41"/><path d="M615.718 196.51a51.265 51.265 0 00-1.647 27.54c5.086 24.934 3.193 54.411-1.807 85.91 0 3.314 2.308 6 5.155 6h78.19c2.847 0 5.155-2.686 5.155-6v-93.5c0-27.63-18.783-50.24-42.274-51.44-.653-.04-1.315-.06-1.976-.06-18.327 0-34.086 13.03-40.796 31.55z" fill="#2f2e41"/><path d="M640.62 317.86V202.228a13.88 13.88 0 0127.76 0V317.86a6.507 6.507 0 01-6.5 6.5h-14.76a6.507 6.507 0 01-6.5-6.5z" fill="#660708"/><path d="M664.362 235.038l-20.98-.924a6.508 6.508 0 01-6.207-6.78l1.473-33.467a17 17 0 1133.967 1.495l-1.473 33.468a6.5 6.5 0 01-6.486 6.214q-.146 0-.294-.006z" fill="#2f2e41"/><ellipse cx="700.764" cy="241.96" rx="4.5" ry="14.5" fill="#2f2e41"/><circle cx="454.15" cy="397.46" r="25" fill="#ccc"/><path d="M701.378 422.46h-192a8 8 0 110-16h192a8 8 0 010 16zm-52-34h-140a8 8 0 110-16h140a8 8 0 010 16z" fill="#ccc"/><circle cx="454.15" cy="492.46" r="25" fill="#ccc"/><path d="M701.378 517.46h-192a8 8 0 110-16h192a8 8 0 010 16zm-52-34h-140a8 8 0 110-16h140a8 8 0 010 16z" fill="#ccc"/><circle cx="454.15" cy="588.46" r="25" fill="#ccc"/><path d="M701.378 613.46h-192a8 8 0 110-16h192a8 8 0 010 16zm-52-34h-140a8 8 0 110-16h140a8 8 0 010 16z" fill="#ccc"/><path d="M768.264 658.46h-398a17.02 17.02 0 01-17-17v-297a17.02 17.02 0 0117-17h398a17.02 17.02 0 0117 17v297a17.02 17.02 0 01-17 17zm-398-329a15.017 15.017 0 00-15 15v297a15.017 15.017 0 0015 15h398a15.017 15.017 0 0015-15v-297a15.017 15.017 0 00-15-15z" fill="#3f3d56"/><circle cx="360.264" cy="332.46" r="56" fill="#660708"/><path d="M354.713 353.823a5.808 5.808 0 01-3.495-1.161l-.062-.047-13.16-10.076a5.847 5.847 0 117.112-9.282l8.524 6.536 20.144-26.271a5.847 5.847 0 018.198-1.082l-.126.17.129-.168a5.853 5.853 0 011.082 8.198l-23.694 30.9a5.85 5.85 0 01-4.652 2.283z" fill="#fff"/><path d="M359.834 667.297a6.927 6.927 0 01-2.855-.613l-105.505-47.33a14.38 14.38 0 1111.771-26.24l105.505 47.33a7 7 0 013.522 9.252l-6.041 13.467a7.018 7.018 0 01-6.397 4.134z" fill="#660708"/><path d="M382 796.46H1a1 1 0 110-2h381a1 1 0 010 2z" fill="#3f3d56"/></svg>