<svg xmlns="http://www.w3.org/2000/svg" data-name="Layer 1" width="534.205" height="457.917" class="injected-svg DownloadModal__ImageFile-sc-p17csy-5 iIfSkb grid_media"><path fill="#ffb8b8" d="M223.146 445.593h12.26l5.832-47.288-18.094.001.002 47.287z"/><path d="M259.05 456.976l-38.53.002-.001-14.887 23.644-.001a14.887 14.887 0 0114.887 14.886z" fill="#2f2e41"/><path fill="#ffb8b8" d="M110.003 438.56l12.006 2.482 15.288-45.127-17.719-3.664-9.575 46.309z"/><path d="M142.858 456.978l-37.733-7.802 3.015-14.579 23.154 4.788a14.887 14.887 0 0111.564 17.593z" fill="#2f2e41"/><path d="M143.258 286.411a10.056 10.056 0 011.442-15.351l-9.514-34.446 17.665 5.728 6.326 31.831a10.11 10.11 0 01-15.92 12.238z" fill="#ffb8b8"/><path d="M219.564 428.255a4.495 4.495 0 01-4.444-3.783l-22.848-125.899a1.5 1.5 0 00-2.86-.367l-50.901 117.768a4.528 4.528 0 01-5.564 2.481l-17.88-6.008a4.5 4.5 0 01-2.733-5.966l24.609-60.283 20.544-90.954.145-.11c.396-.301 39.919-29.801 66.927-6.204 24.715 21.593 20.115 144.985 18.942 169.501a4.465 4.465 0 01-3.419 4.148l-19.426 5.543a4.57 4.57 0 01-1.092.133z" fill="#2f2e41"/><circle cx="180.834" cy="123.998" r="24.561" fill="#ffb8b8"/><path d="M228.59 275.411a10.056 10.056 0 011.442-15.351l-9.513-34.446 17.664 5.728 6.326 31.831a10.11 10.11 0 01-15.919 12.238z" fill="#ffb8b8"/><path d="M153.612 265.593a2.619 2.619 0 01-.994-.197c-10.372-4.216-2.102-86.514-1.744-90.016l.04-.15q.384-.878.777-1.72a29.65 29.65 0 0130.071-17.332 30.506 30.506 0 0127.13 22.528l19.22 70.417a4.497 4.497 0 01-5.32 5.576c-14.952-3.34-51.191-9.269-64.7 7.768-1.66 2.094-3.136 3.126-4.48 3.126z" fill="#660708"/><path d="M228.086 258.833a4.519 4.519 0 01-1.45-.24 4.463 4.463 0 01-2.63-2.352l-16.727-35.659-16.275-46.85a11.102 11.102 0 012.844-11.677 11.082 11.082 0 0117.681 3.387l21.657 46.79 16.898 30.523a4.5 4.5 0 01-1.861 6.172l-18.067 9.395a4.48 4.48 0 01-2.07.51zM155 267.599a4.502 4.502 0 01-.484-.026l-20.25-2.148a4.5 4.5 0 01-3.978-5.133l5.753-38.964 12.31-48.043a11.102 11.102 0 018.822-8.164 11.082 11.082 0 0112.868 12.59l-7.792 50.967-2.773 34.778a4.502 4.502 0 01-4.476 4.143z" fill="#660708"/><path d="M184.715 110.79l20.411-1.486a20.865 20.865 0 00-12.73-22.386c-8.7-3.305-19.498.366-22.84 5.631a29.049 29.049 0 108.959 55.629c-8.424-11.824-4.1-30.615 6.2-37.387z" fill="#2f2e41"/><path d="M147.594 99.516c-6.333-5.787-14.075-10.412-22.593-11.434s-17.825 2.099-22.73 9.138-4.049 17.982 2.85 23.082a17.83 17.83 0 01-7.917 31.963c-12.665 1.929-22.201 14.979-21.253 27.755s11.417 23.914 23.903 26.781 26.149-2.063 34.864-11.454 12.617-22.722 11.624-35.495-6.6-24.94-14.662-34.898c-2.189-2.703-.544-6.99 2.268-9.038s6.395-2.62 9.687-3.744 6.69-3.241 7.449-6.636-3.09-7.36-3.49-6.02z" fill="#2f2e41"/><path d="M517.205 175h-141a17.02 17.02 0 01-17-17V17a17.02 17.02 0 0117-17h141a17.02 17.02 0 0117 17v141a17.02 17.02 0 01-17 17zm-141-173a15.017 15.017 0 00-15 15v141a15.017 15.017 0 0015 15h141a15.017 15.017 0 0015-15V17a15.017 15.017 0 00-15-15z" fill="#3f3d56"/><path d="M442.181 114.148a20.643 20.643 0 01-15.418-6.71c-4.567-4.986-6.801-12.219-6.13-19.842a30.123 30.123 0 018.074-18.168 24.1 24.1 0 0117.451-7.741 21.666 21.666 0 0116.152 7.12 25.417 25.417 0 016.243 19.433c-.684 7.747-3.693 14.327-8.703 19.028a25.681 25.681 0 01-17.669 6.88zm3.977-45.128c-9.268 0-17.271 8.442-18.22 19.22-.491 5.58 1.051 10.772 4.233 14.246a13.216 13.216 0 0010.01 4.329c8.647 0 17.895-5.943 19.067-19.22a18.079 18.079 0 00-4.346-13.836 14.413 14.413 0 00-10.744-4.739zM464.9 87.917z" fill="#660708"/><path d="M477.033 114.244a13.963 13.963 0 01-2.438-.209 15.836 15.836 0 01-10.477-6.81c-2.605-3.88-3.705-9.077-3.18-15.032l2.391-27.147a3.667 3.667 0 017.305.644l-2.391 27.147c-.686 7.783 2.168 13.009 7.632 13.978 1.875.332 5.245-.184 8.57-2.731 3.395-2.602 7.644-7.98 8.598-18.82 1.096-12.439-2.082-23.116-9.192-30.88-7.453-8.138-18.735-12.44-32.627-12.44-25.535 0-48.128 20.767-50.363 46.293a44.532 44.532 0 001.024 14.336 3.667 3.667 0 01-7.13 1.717 51.85 51.85 0 01-1.199-16.692 58.961 58.961 0 0157.668-52.988c16.004 0 29.156 5.126 38.036 14.822 8.413 9.188 12.351 22.141 11.088 36.475-1.188 13.498-6.879 20.5-11.443 23.998a20.018 20.018 0 01-11.872 4.34zm-34.558 26.981a49.505 49.505 0 01-32.793-12.072 3.667 3.667 0 114.842-5.507 42.178 42.178 0 0027.95 10.245c8.221 0 13.196-.549 20.941-3.803a3.667 3.667 0 112.84 6.76c-8.856 3.722-14.724 4.377-23.78 4.377z" fill="#660708"/><path d="M382 457.917H1a1 1 0 010-2h381a1 1 0 010 2z" fill="#ccc"/></svg>