<?xml version="1.0" standalone="no"?>
<svg xmlns:xlink="http://www.w3.org/1999/xlink" id="wave" style="transform:rotate(0deg); transition: 0.3s" viewBox="0 0 1440 490" version="1.1" xmlns="http://www.w3.org/2000/svg"><defs><linearGradient id="sw-gradient-0" x1="0" x2="0" y1="1" y2="0"><stop stop-color="rgba(102, 7, 8, 1)" offset="0%"/><stop stop-color="rgba(164, 22, 26, 1)" offset="100%"/></linearGradient></defs><path style="transform:translate(0, 0px); opacity:.4" fill="url(#sw-gradient-0)" d="M0,196L80,228.7C160,261,320,327,480,294C640,261,800,131,960,98C1120,65,1280,131,1440,155.2C1600,180,1760,163,1920,196C2080,229,2240,310,2400,302.2C2560,294,2720,196,2880,130.7C3040,65,3200,33,3360,24.5C3520,16,3680,33,3840,73.5C4000,114,4160,180,4320,187.8C4480,196,4640,147,4800,147C4960,147,5120,196,5280,179.7C5440,163,5600,82,5760,40.8C5920,0,6080,0,6240,73.5C6400,147,6560,294,6720,334.8C6880,376,7040,310,7200,310.3C7360,310,7520,376,7680,392C7840,408,8000,376,8160,375.7C8320,376,8480,408,8640,375.7C8800,343,8960,245,9120,212.3C9280,180,9440,212,9600,220.5C9760,229,9920,212,10080,212.3C10240,212,10400,229,10560,212.3C10720,196,10880,147,11040,147C11200,147,11360,196,11440,220.5L11520,245L11520,490L11440,490C11360,490,11200,490,11040,490C10880,490,10720,490,10560,490C10400,490,10240,490,10080,490C9920,490,9760,490,9600,490C9440,490,9280,490,9120,490C8960,490,8800,490,8640,490C8480,490,8320,490,8160,490C8000,490,7840,490,7680,490C7520,490,7360,490,7200,490C7040,490,6880,490,6720,490C6560,490,6400,490,6240,490C6080,490,5920,490,5760,490C5600,490,5440,490,5280,490C5120,490,4960,490,4800,490C4640,490,4480,490,4320,490C4160,490,4000,490,3840,490C3680,490,3520,490,3360,490C3200,490,3040,490,2880,490C2720,490,2560,490,2400,490C2240,490,2080,490,1920,490C1760,490,1600,490,1440,490C1280,490,1120,490,960,490C800,490,640,490,480,490C320,490,160,490,80,490L0,490Z"/></svg>